<?xml version="1.0" encoding="UTF-8"?>
<svg id="_レイヤー_1" data-name="レイヤー 1" xmlns="http://www.w3.org/2000/svg" viewBox="0 0 623.99 196.81">
  <defs>
    <style>
      .cls-1 {
        fill: #80766f;
      }
    </style>
  </defs>
  <path class="cls-1" d="m22.38,196.18c-7.4,0-13.13-1.94-19.18-6.47l-3.2-2.4,6.82-9.09,3.16,2.15c5.28,3.59,8.36,4.75,12.64,4.75,4.95,0,9.95-2.13,9.95-6.88,0-3.13-.81-6.17-10.56-8.92-11.93-3.28-18.52-10.53-18.52-20.4,0-11.77,9.24-20.31,21.97-20.31,6.87,0,13.06,2.75,17.43,7.75l2.58,2.95-8.63,7.85-2.67-3.28c-2.39-2.94-5.07-4.2-8.95-4.2-6.04,0-9.95,3.35-9.95,8.53,0,4.63,1.83,7.97,10.94,10.31,12.03,3.08,18.14,9.63,18.14,19.48,0,10.37-9.44,18.18-21.97,18.18Z"/>
  <path class="cls-1" d="m23.09,165.46c-9.46-2.6-15.6-8.04-15.6-16.55,0-10.17,8.27-16.31,17.97-16.31,6.15,0,11.11,2.6,14.42,6.38l-2.6,2.36c-3.07-3.78-6.86-5.67-12.06-5.67-8.27,0-13.95,5.2-13.95,12.53,0,7.8,4.73,11.82,13.95,14.18,10.17,2.6,15.13,7.56,15.13,15.6,0,8.75-8.51,14.18-17.97,14.18-6.15,0-11.11-1.42-16.78-5.67l2.13-2.84c5.91,4.02,9.69,5.44,14.89,5.44,8.04,0,13.95-4.26,13.95-10.88s-4.25-10.17-13.47-12.77Z"/>
  <path class="cls-1" d="m86.92,196.18c-16.46,0-33.08-10.45-33.08-33.79s16.61-33.79,33.08-33.79,33.08,10.45,33.08,33.79-16.61,33.79-33.08,33.79Zm0-56.5c-12.79,0-21.06,8.92-21.06,22.71s8.27,22.71,21.06,22.71,21.06-8.92,21.06-22.71-8.27-22.71-21.06-22.71Z"/>
  <path class="cls-1" d="m116,162.39c0,19.62-13.24,29.79-29.08,29.79s-29.08-10.17-29.08-29.79,13.24-29.79,29.08-29.79,29.08,10.17,29.08,29.79Zm-4.02,0c0-16.08-9.93-26.71-25.06-26.71s-25.06,10.64-25.06,26.71,9.93,26.71,25.06,26.71,25.06-10.64,25.06-26.71Z"/>
  <path class="cls-1" d="m132.36,193.82l1.06-3.88c1.18-4.32,1.75-11.24,1.75-21.17v-38.75h11.78v25.16c2.53-5.28,5.22-9.93,7.9-13.59,6.27-8.73,13.21-12.98,21.19-12.98,11.71,0,20.55,9.34,20.55,21.73v43.95h-11.78v-42.06c0-4.42-1.26-11.84-9.71-11.84-6.68,0-17.38,9.14-30.45,52.71l-1.11,3.72-11.18-2.98Z"/>
  <path class="cls-1" d="m158.08,143.95c5.44-7.57,11.11-11.35,17.97-11.35,10.17,0,16.55,8.27,16.55,17.73v39.95h-3.78v-38.06c0-9.22-4.73-15.84-13.71-15.84-11.82,0-22.93,17.73-34.28,55.56l-3.55-.95c1.42-5.2,1.89-13,1.89-22.22v-34.75h3.78v28.37c0,8.04-.47,13.24-1.18,17.97,4.73-16.55,11.11-29.31,16.31-36.41Z"/>
  <path class="cls-1" d="m243.65,196.18c-16.46,0-33.08-10.45-33.08-33.79s16.61-33.79,33.08-33.79,33.08,10.45,33.08,33.79-16.61,33.79-33.08,33.79Zm0-56.5c-12.79,0-21.06,8.92-21.06,22.71s8.27,22.71,21.06,22.71,21.06-8.92,21.06-22.71-8.27-22.71-21.06-22.71Z"/>
  <path class="cls-1" d="m272.73,162.39c0,19.62-13.24,29.79-29.08,29.79s-29.08-10.17-29.08-29.79,13.24-29.79,29.08-29.79,29.08,10.17,29.08,29.79Zm-4.02,0c0-16.08-9.93-26.71-25.06-26.71s-25.06,10.64-25.06,26.71,9.93,26.71,25.06,26.71,25.06-10.64,25.06-26.71Z"/>
  <path class="cls-1" d="m306.3,196.18c-7.4,0-13.13-1.94-19.18-6.47l-3.2-2.4,6.82-9.09,3.16,2.15c5.28,3.59,8.36,4.75,12.64,4.75,4.95,0,9.95-2.13,9.95-6.88,0-3.13-.81-6.17-10.56-8.92-11.93-3.28-18.52-10.53-18.52-20.4,0-11.77,9.24-20.31,21.97-20.31,6.87,0,13.06,2.75,17.43,7.75l2.58,2.95-8.63,7.85-2.67-3.28c-2.39-2.94-5.07-4.2-8.95-4.2-6.04,0-9.95,3.35-9.95,8.53,0,4.63,1.83,7.97,10.94,10.31,12.03,3.08,18.14,9.63,18.14,19.48,0,10.37-9.44,18.18-21.97,18.18Z"/>
  <path class="cls-1" d="m307.01,165.46c-9.46-2.6-15.6-8.04-15.6-16.55,0-10.17,8.27-16.31,17.97-16.31,6.15,0,11.11,2.6,14.42,6.38l-2.6,2.36c-3.07-3.78-6.86-5.67-12.06-5.67-8.27,0-13.95,5.2-13.95,12.53,0,7.8,4.73,11.82,13.95,14.18,10.17,2.6,15.13,7.56,15.13,15.6,0,8.75-8.51,14.18-17.97,14.18-6.15,0-11.11-1.42-16.78-5.67l2.13-2.84c5.91,4.02,9.69,5.44,14.89,5.44,8.04,0,13.95-4.26,13.95-10.88s-4.26-10.17-13.48-12.77Z"/>
  <path class="cls-1" d="m369.89,196.18c-18.62,0-32.13-13.81-32.13-32.84,0-20.45,13.89-34.73,33.79-34.73,8.02,0,15.14,2.73,20.59,7.66v-6.25h11.78v64.26h-11.78v-6.24c-5.74,5.31-13.31,8.13-22.24,8.13Zm1.42-56.5c-12.88,0-21.53,9.22-21.53,22.95s9.06,22.48,21.53,22.48c10.9,0,20.82-9.59,20.82-20.11v-5.2c0-10.9-9.54-20.11-20.82-20.11Z"/>
  <path class="cls-1" d="m399.91,134.02v56.26h-3.78v-5.44c0-4.49.24-8.75.71-10.87-5.2,13-15.37,18.2-26.95,18.2-15.37,0-28.13-11.11-28.13-28.84,0-20.09,13.95-30.73,29.79-30.73,12.06,0,21.28,7.09,25.29,17.73-.47-2.36-.71-6.62-.71-10.88v-5.44h3.78Zm-3.78,25.77c0-13-11.11-24.11-24.82-24.11-14.66,0-25.53,10.64-25.53,26.95s11.11,26.48,25.53,26.48c13.47,0,24.82-11.58,24.82-24.11v-5.2Z"/>
  <polygon class="cls-1" points="468.08 194.29 441.04 169.26 438.42 171.7 438.42 194.29 426.64 194.29 426.64 0 438.42 0 438.42 156.79 467.37 130.02 484.8 130.02 449.83 161.47 485.6 194.29 468.08 194.29"/>
  <path class="cls-1" d="m430.64,190.29V4h3.78v161.94l34.52-31.92h5.44l-30.5,27.42,31.44,28.84h-5.67l-28.6-26.48-6.62,6.15v20.33h-3.78Z"/>
  <path class="cls-1" d="m493.78,194.29v-64.26h11.78v64.26h-11.78Zm5.89-71.87c-4.1,0-7.31-3.21-7.31-7.31s3.21-7.31,7.31-7.31,7.31,3.21,7.31,7.31-3.21,7.31-7.31,7.31Z"/>
  <path class="cls-1" d="m499.67,118.42c-1.89,0-3.31-1.42-3.31-3.31s1.42-3.31,3.31-3.31,3.31,1.42,3.31,3.31-1.42,3.31-3.31,3.31Zm-1.89,71.87v-56.26h3.78v56.26h-3.78Z"/>
  <path class="cls-1" d="m525.48,193.82l1.06-3.88c1.18-4.32,1.75-11.24,1.75-21.17v-38.75h11.78v25.16c2.53-5.28,5.22-9.93,7.9-13.59,6.27-8.73,13.21-12.98,21.19-12.98,11.71,0,20.55,9.34,20.55,21.73v43.95h-11.78v-42.06c0-4.42-1.26-11.84-9.71-11.84-6.68,0-17.38,9.14-30.45,52.71l-1.11,3.71-11.18-2.98Z"/>
  <path class="cls-1" d="m551.2,143.95c5.44-7.57,11.11-11.35,17.97-11.35,10.17,0,16.55,8.27,16.55,17.73v39.95h-3.78v-38.06c0-9.22-4.73-15.84-13.71-15.84-11.82,0-22.93,17.73-34.28,55.56l-3.55-.95c1.42-5.2,1.89-13,1.89-22.22v-34.75h3.78v28.37c0,8.04-.47,13.24-1.18,17.97,4.73-16.55,11.11-29.31,16.31-36.41Z"/>
  <path class="cls-1" d="m610.79,194.29v-64.26h11.78v64.26h-11.78Zm5.89-71.87c-4.1,0-7.31-3.21-7.31-7.31s3.21-7.31,7.31-7.31,7.31,3.21,7.31,7.31-3.21,7.31-7.31,7.31Z"/>
  <path class="cls-1" d="m616.68,118.42c-1.89,0-3.31-1.42-3.31-3.31s1.42-3.31,3.31-3.31,3.31,1.42,3.31,3.31-1.42,3.31-3.31,3.31Zm-1.89,71.87v-56.26h3.78v56.26h-3.78Z"/>
</svg>