<?xml version="1.0" encoding="UTF-8"?>
<svg id="_レイヤー_1" data-name="レイヤー 1" xmlns="http://www.w3.org/2000/svg" viewBox="0 0 664.56 102.37">
  <path d="m25.75,102.37c-16.91,0-25.75-7.91-25.75-16.91,0-2.95,2.33-6.67,6.51-13.03,6.36-9.62,11.48-19.7,17.37-32.73v-2.17c0-10.24,6.67-17.37,12.41-17.37,5.27,0,8.07,2.79,8.07,6.67,0,2.79-2.17,7.6-6.36,14.74,3.57,11.17,14.27,23.11,14.27,37.23,0,3.41-.93,6.67-2.48,9.46,5.58-4.03,10.86-9.46,15.05-15.82,2.02-3.26,3.88-5.58,6.82-5.58,3.1,0,5.74,2.17,5.74,4.96,0,1.09-.31,2.17-.93,3.1-10.86,16.75-31.64,27.45-50.72,27.45Zm4.19-47.62c-3.41,6.67-7.29,13.34-11.79,20.16-3.1,4.81-3.72,7.29-3.72,9.46,0,2.64,3.1,8.38,10.7,8.38s12.56-6.05,12.56-13.34c0-9.62-4.03-16.75-7.76-24.66Z"/>
  <path d="m127.29,94.77c-3.72,0-7.29-.47-10.24-1.24-6.82,5.43-14.89,8.84-22.96,8.84-14.27,0-24.51-7.75-24.51-22.49,0-23.42,22.8-43.9,42.34-43.9,15.2,0,24.2,7.91,24.2,21.56,0,9.62-4.34,19.54-10.86,27.76,1.09.16,2.17.31,3.57.31,6.36,0,12.72-3.88,18.77-13.18,2.02-3.26,3.88-5.58,6.82-5.58,3.1,0,5.74,2.17,5.74,4.96,0,1.09-.31,2.17-.93,3.1-8.84,13.49-19.54,19.85-31.95,19.85Zm-15.67-48.55c-10.7,0-25.9,16.91-25.9,34.12,0,7.91,4.5,11.79,10.08,11.79,3.88,0,7.76-1.86,11.32-4.81-.47-.78-.62-1.55-.62-2.17,0-3.88,3.41-6.67,7.91-6.98,3.72-6.2,6.05-13.8,6.05-20.94,0-7.6-3.57-11.01-8.84-11.01Z"/>
  <path d="m199.64,102.37c-10.08,0-16.44-5.89-16.44-15.82,0-12.72,14.11-27.92,14.11-38,0-1.55-1.09-2.33-2.95-2.33-6.67,0-16.75,10.24-23.73,18.61-6.2,7.29-13.18,20.32-16.75,31.49-.93,2.95-2.64,6.05-7.29,6.05-2.95,0-5.89-1.71-5.89-5.74,0-1.4.15-2.17.62-3.72,5.43-16.75,12.72-35.36,18.61-49.48,1.86-4.5,4.96-6.67,8.69-6.67s6.2,2.33,6.2,5.43c0,1.24-.78,2.95-2.02,5.27l-2.17,5.27c8.38-9.15,18.46-16.75,26.52-16.75,8.53,0,14.42,5.27,14.42,13.18,0,12.72-14.27,25.9-14.27,38.47,0,3.57,1.71,5.58,4.19,5.58,6.51,0,14.89-9.93,21.87-20.78,2.02-3.26,3.88-5.58,6.82-5.58,3.1,0,5.74,2.17,5.74,4.96,0,1.09-.31,2.17-.93,3.1-9.46,14.58-22.03,27.45-35.36,27.45Z"/>
  <path d="m280.83,94.77c-3.72,0-7.29-.47-10.24-1.24-6.82,5.43-14.89,8.84-22.96,8.84-14.27,0-24.51-7.75-24.51-22.49,0-23.42,22.8-43.9,42.34-43.9,15.2,0,24.2,7.91,24.2,21.56,0,9.62-4.34,19.54-10.86,27.76,1.09.16,2.17.31,3.57.31,6.36,0,12.72-3.88,18.77-13.18,2.02-3.26,3.88-5.58,6.82-5.58,3.1,0,5.74,2.17,5.74,4.96,0,1.09-.31,2.17-.93,3.1-8.84,13.49-19.54,19.85-31.95,19.85Zm-15.67-48.55c-10.7,0-25.9,16.91-25.9,34.12,0,7.91,4.5,11.79,10.08,11.79,3.88,0,7.76-1.86,11.32-4.81-.47-.78-.62-1.55-.62-2.17,0-3.88,3.41-6.67,7.91-6.98,3.72-6.2,6.05-13.8,6.05-20.94,0-7.6-3.57-11.01-8.84-11.01Z"/>
  <path d="m320.76,102.37c-16.91,0-25.75-7.91-25.75-16.91,0-2.95,2.33-6.67,6.51-13.03,6.36-9.62,11.48-19.7,17.37-32.73v-2.17c0-10.24,6.67-17.37,12.41-17.37,5.27,0,8.07,2.79,8.07,6.67,0,2.79-2.17,7.6-6.36,14.74,3.57,11.17,14.27,23.11,14.27,37.23,0,3.41-.93,6.67-2.48,9.46,5.58-4.03,10.86-9.46,15.05-15.82,2.02-3.26,3.88-5.58,6.82-5.58,3.1,0,5.74,2.17,5.74,4.96,0,1.09-.31,2.17-.93,3.1-10.86,16.75-31.64,27.45-50.72,27.45Zm4.19-47.62c-3.41,6.67-7.29,13.34-11.79,20.16-3.1,4.81-3.72,7.29-3.72,9.46,0,2.64,3.1,8.38,10.7,8.38s12.56-6.05,12.56-13.34c0-9.62-4.03-16.75-7.76-24.66Z"/>
  <path d="m401.81,35.98c6.51,0,11.17,2.64,14.11,7.91,2.02-4.81,6.2-7.91,9.93-7.91s5.89,2.17,5.89,5.27c0,2.17-1.86,5.74-6.36,13.03-5.89,13.03-10.55,24.04-10.55,31.95,0,4.81,2.02,6.98,4.5,6.98,6.51,0,14.74-9.93,21.71-20.78,2.02-3.26,3.88-5.58,6.83-5.58,3.1,0,5.74,2.17,5.74,4.96,0,1.09-.31,2.17-.93,3.1-9.46,14.58-21.87,27.45-35.21,27.45-8.53,0-15.67-4.65-16.91-13.34-6.82,7.91-14.89,13.34-23.27,13.34-11.79,0-20.16-6.98-20.16-19.85,0-23.11,23.27-46.53,44.67-46.53Zm-21.25,56.46c6.2,0,12.56-6.51,18.46-15.2,5.27-8.07,8.84-15.2,12.41-24.04-.62-4.65-4.03-7.45-9.93-7.45-12.1,0-28.23,19.7-28.23,37.38,0,6.2,3.1,9.31,7.29,9.31Z"/>
  <path d="m482.86,102.37c-12.25,0-20.01-7.6-25.28-21.71-.47-1.4-.62-2.33-.62-3.41,0-2.95,1.86-4.96,5.89-5.74,15.04-2.95,28.38-14.11,28.38-23.58,0-1.55-1.09-2.48-3.1-2.48-7.45,0-20.63,8.38-27.61,16.91-5.58,6.82-11.01,20.01-14.42,30.87-1.4,4.34-3.1,9.15-9.15,9.15-2.64,0-5.27-1.71-5.27-5.27,0-1.4.16-2.17.62-3.72,9.93-29,24.04-62.66,34.74-87.95,1.55-3.72,5.58-5.43,8.69-5.43,4.03,0,6.36,2.33,6.36,5.74s-2.95,9-8.38,17.68l-9.77,23.42c8.53-6.36,18.15-10.86,25.75-10.86,9.46,0,15.82,4.81,15.82,12.56,0,11.63-15.51,24.04-33.66,29.01,2.79,9.31,7.91,15.2,13.18,15.2,6.98,0,16.29-9.46,23.42-20.32,2.02-3.26,3.88-5.58,6.83-5.58,3.1,0,5.74,2.17,5.74,4.96,0,1.09-.31,2.17-.93,3.1-9.46,14.89-21.25,27.45-37.22,27.45Z"/>
  <path d="m523.66,102.37c-10.7,0-17.68-5.74-17.68-17.22,0-10.39,6.2-25.28,11.79-35.98,5.27-10.08,9.15-13.18,13.18-13.18,3.57,0,5.89,2.17,5.89,5.27,0,2.48-2.02,6.82-7.91,16.29-5.27,11.01-8.69,20.32-8.69,27.92,0,5.58,2.33,7.75,5.27,7.75,6.51,0,14.89-9.93,21.87-20.78,2.02-3.26,3.88-5.58,6.82-5.58,3.1,0,5.74,2.17,5.74,4.96,0,1.09-.31,2.17-.93,3.1-9.46,14.58-22.03,27.45-35.36,27.45Zm18.61-91.05c4.81,0,7.91,2.79,7.91,7.29,0,4.19-3.72,10.08-10.7,10.08-4.65,0-8.22-2.79-8.22-7.6,0-5.12,5.27-9.77,11.01-9.77Z"/>
  <path d="m596.03,102.37c-9.48,0-15.45-4.72-15.45-12.68,0-10.19,13.27-22.37,13.27-30.45,0-1.24-1.02-1.86-2.77-1.86-6.27,0-15.74,8.2-22.3,14.92-5.83,5.84-12.39,16.28-15.75,25.23-.87,2.36-2.48,4.85-6.85,4.85-2.77,0-5.54-1.37-5.54-4.6,0-1.12.15-1.74.58-2.98,5.1-13.43,11.95-28.34,17.49-39.65,1.75-3.6,4.67-5.35,8.16-5.35s5.83,1.86,5.83,4.35c0,.99-.73,2.36-1.9,4.23l-2.04,4.23c7.87-7.33,17.35-13.42,24.93-13.42,8.02,0,13.56,4.23,13.56,10.57,0,10.19-13.41,20.76-13.41,30.83,0,2.86,1.6,4.47,3.94,4.47,6.12,0,14-7.96,20.56-16.66,1.9-2.61,3.64-4.47,6.42-4.47,2.92,0,5.39,1.74,5.39,3.98,0,.87-.29,1.74-.87,2.49-8.89,11.68-20.7,22-33.24,22Z"/>
  <path d="m634.63,85.46c0,5.43,2.17,7.6,4.96,7.6,2.64,0,5.43-2.64,7.6-6.05,1.71-2.79,3.57-3.72,5.43-3.72,2.17,0,4.03,1.55,4.03,3.88,0,5.12-8.07,15.2-18.61,15.2s-17.68-5.74-17.68-17.22c0-10.39,6.2-25.28,11.79-35.98,5.27-10.08,9.15-13.18,13.18-13.18,3.57,0,5.89,2.17,5.89,5.27,0,2.64-2.33,7.29-9.15,18.15-4.65,10.08-7.45,18.92-7.45,26.06Zm22.03-74.14c4.81,0,7.91,2.79,7.91,7.29,0,4.19-3.72,10.08-10.7,10.08-4.65,0-8.22-2.79-8.22-7.6,0-5.12,5.27-9.77,11.01-9.77Z"/>
</svg>