<?xml version="1.0" encoding="UTF-8"?>
<svg id="_レイヤー_1" data-name=" レイヤー 1" xmlns="http://www.w3.org/2000/svg" viewBox="0 0 553.92 171.77">
  <path d="m17.79,171.77c-6.39,0-11.35-1.67-16.59-5.6-.64-.48-1.06-1.19-1.17-1.98-.11-.79.09-1.59.57-2.22l1.87-2.5c.59-.78,1.49-1.2,2.4-1.2.58,0,1.17.17,1.68.52,4.75,3.23,7.53,4.27,11.43,4.27,4.62,0,9.29-2.03,9.29-6.58,0-2.85-.75-5.84-9.68-8.36-10.27-2.82-15.93-9.03-15.93-17.47,0-10.06,7.92-17.37,18.83-17.37,5.9,0,11.21,2.36,14.96,6.65,1.08,1.23.97,3.1-.24,4.2l-2.29,2.08c-.55.5-1.27.78-2.02.78-.08,0-.15,0-.23,0-.82-.06-1.58-.46-2.1-1.1-2.21-2.73-4.69-3.89-8.29-3.89-5.55,0-9.29,3.23-9.29,8.04,0,4.21,1.71,7.45,10.03,9.59,10.34,2.65,15.58,8.25,15.58,16.65,0,8.83-8.09,15.5-18.83,15.5Z"/>
  <path d="m73.81,171.77c-16.1,0-27.78-11.95-27.78-28.41,0-9.16,3.05-16.89,8.83-22.35,5.26-4.98,12.51-7.72,20.41-7.72,7.37,0,13.85,2.67,18.66,7.45v-3.2c0-1.66,1.34-3,3-3h3.33c1.66,0,3,1.34,3,3v49.56c0,1.66-1.34,3-3,3h-3.33c-1.66,0-3-1.34-3-3v-3.21c-5.06,5.14-11.93,7.88-20.12,7.88Zm1.25-49.77c-11.66,0-19.49,8.33-19.49,20.74s8.2,20.32,19.49,20.32c9.87,0,18.87-8.7,18.87-18.24v-4.58c0-9.89-8.64-18.24-18.87-18.24Z"/>
  <path d="m128.79,171.56c-.26,0-.52-.03-.77-.1l-3.12-.83c-.77-.21-1.43-.71-1.83-1.4-.4-.69-.5-1.51-.29-2.29,1.05-3.85,1.56-10,1.56-18.79v-30.61c0-1.66,1.34-3,3-3h3.33c1.66,0,3,1.34,3,3v21c2.5-5.51,5.2-10.34,7.91-14.02,5.5-7.65,11.3-11.22,18.25-11.22,10.02,0,17.58,8,17.58,18.62v35.19c0,1.66-1.34,3-3,3h-3.33c-1.66,0-3-1.34-3-3v-33.53c0-3.29-.88-10.95-9.08-10.95-6.06,0-15.72,8.12-27.32,46.8-.39,1.3-1.58,2.14-2.87,2.14Z"/>
  <path d="m219.38,171.77c-14.24,0-28.61-9.04-28.61-29.24s14.37-29.24,28.61-29.24,28.61,9.04,28.61,29.24-14.37,29.24-28.61,29.24Zm0-49.77c-11.59,0-19.07,8.06-19.07,20.53s7.49,20.53,19.07,20.53,19.07-8.06,19.07-20.53-7.49-20.53-19.07-20.53Z"/>
  <path d="m274.57,171.77c-6.39,0-11.35-1.67-16.59-5.6-1.33-.99-1.59-2.88-.6-4.2l1.87-2.5c.59-.78,1.49-1.2,2.4-1.2.58,0,1.17.17,1.68.52,4.76,3.23,7.53,4.27,11.43,4.27,4.62,0,9.29-2.03,9.29-6.58,0-2.85-.75-5.84-9.68-8.36-10.27-2.82-15.93-9.03-15.93-17.47,0-10.06,7.92-17.37,18.83-17.37,5.9,0,11.21,2.36,14.96,6.65,1.08,1.23.97,3.1-.24,4.2l-2.29,2.08c-.55.5-1.27.78-2.02.78-.08,0-.15,0-.23,0-.82-.06-1.58-.46-2.1-1.1-2.22-2.73-4.7-3.89-8.29-3.89-5.55,0-9.29,3.23-9.29,8.04,0,4.21,1.71,7.45,10.03,9.59,10.34,2.65,15.58,8.25,15.58,16.65,0,8.83-8.09,15.5-18.83,15.5Z"/>
  <path d="m330.59,171.77c-16.1,0-27.78-11.95-27.78-28.41,0-9.16,3.05-16.89,8.83-22.35,5.26-4.98,12.51-7.72,20.41-7.72,7.37,0,13.85,2.67,18.66,7.45v-3.2c0-1.66,1.34-3,3-3h3.33c1.66,0,3,1.34,3,3v49.56c0,1.66-1.34,3-3,3h-3.33c-1.66,0-3-1.34-3-3v-3.21c-5.06,5.14-11.93,7.88-20.12,7.88Zm1.25-49.77c-11.66,0-19.49,8.33-19.49,20.74s8.2,20.32,19.49,20.32c9.87,0,18.87-8.7,18.87-18.24v-4.58c0-9.89-8.64-18.24-18.87-18.24Z"/>
  <path d="m418.47,170.1c-.76,0-1.48-.29-2.04-.8l-23.16-21.43-2.83,2.63v16.6c0,1.66-1.34,3-3,3h-3.33c-1.66,0-3-1.34-3-3V3c0-1.66,1.34-3,3-3h3.33c1.66,0,3,1.34,3,3v135.79l25.37-23.46c.55-.51,1.28-.8,2.04-.8h4.79c1.24,0,2.36.77,2.8,1.93.45,1.16.13,2.47-.79,3.3l-24.41,21.95,25.26,23.17c.91.84,1.22,2.15.77,3.3-.45,1.15-1.56,1.91-2.8,1.91h-5Z"/>
  <rect x="440.25" y="114.54" width="9.33" height="55.56" rx="3" ry="3"/>
  <path d="m444.92,106.79c-3.32,0-5.92-2.6-5.92-5.92s2.6-5.92,5.92-5.92,5.92,2.6,5.92,5.92-2.6,5.92-5.92,5.92Z"/>
  <path d="m475.12,171.56c-.26,0-.52-.03-.77-.1l-3.12-.83c-.77-.21-1.43-.71-1.83-1.4s-.5-1.52-.29-2.29c1.05-3.85,1.56-9.99,1.56-18.79v-30.61c0-1.66,1.34-3,3-3h3.33c1.66,0,3,1.34,3,3v21c2.5-5.51,5.2-10.33,7.91-14.02,5.5-7.65,11.3-11.22,18.25-11.22,10.02,0,17.58,8,17.58,18.62v35.19c0,1.66-1.34,3-3,3h-3.33c-1.66,0-3-1.34-3-3v-33.53c0-3.29-.88-10.95-9.08-10.95-6.06,0-15.72,8.12-27.32,46.8-.39,1.3-1.58,2.14-2.87,2.14Z"/>
  <path d="m548.01,106.79c-3.32,0-5.92-2.6-5.92-5.92s2.6-5.92,5.92-5.92,5.92,2.6,5.92,5.92-2.6,5.92-5.92,5.92Z"/>
  <rect x="543.34" y="114.54" width="9.33" height="55.56" rx="3" ry="3"/>
</svg>